<?xml version="1.0" encoding="UTF-8"?><svg xmlns="http://www.w3.org/2000/svg" xmlns:xlink="http://www.w3.org/1999/xlink" width="375" zoomAndPan="magnify" viewBox="0 0 375 374.999991" height="374.999991" preserveAspectRatio="xMidYMid meet" version="1.0"><defs><clipPath id="clip-0"><path d="M 17 29.371094 L 367.140625 29.371094 L 367.140625 357 L 17 357 Z M 17 29.371094 " clip-rule="nonzero"/></clipPath></defs><g clip-path="url(#clip-0)"><path fill="rgb(100%, 34.118652%, 34.118652%)" d="M 126.652344 30.285156 C 124.570312 31.898438 121.550781 35.046875 119.804688 37.359375 C 117.671875 40.222656 115.382812 42.695312 114.367188 43.238281 C 113.976562 43.449219 112.777344 43.683594 111.738281 43.757812 C 109.914062 43.914062 109.707031 43.890625 108.015625 43.058594 C 106.636719 42.40625 105.777344 42.171875 104.320312 42.09375 C 101.925781 41.964844 101.144531 42.382812 101.144531 43.785156 C 101.144531 45.738281 102.863281 47.0625 106.714844 48.15625 C 107.886719 48.46875 109.601562 49.09375 110.566406 49.535156 C 111.996094 50.183594 112.414062 50.523438 112.855469 51.378906 C 113.167969 52.003906 114.054688 52.96875 114.992188 53.667969 C 117.800781 55.855469 119.257812 57.335938 119.882812 58.691406 C 120.40625 59.808594 120.457031 60.070312 120.144531 60.613281 C 119.859375 61.1875 119.910156 61.445312 120.769531 63.164062 C 121.289062 64.203125 121.707031 65.167969 121.707031 65.269531 C 121.707031 65.53125 125.507812 71.382812 126.027344 71.878906 C 126.519531 72.398438 127.433594 74.21875 128.34375 76.507812 C 128.734375 77.496094 129.148438 78.433594 129.253906 78.585938 C 129.359375 78.71875 129.722656 79.707031 130.035156 80.773438 C 130.347656 81.839844 130.761719 82.957031 130.945312 83.242188 C 131.152344 83.554688 131.570312 84.492188 131.882812 85.351562 C 132.195312 86.183594 133.054688 87.925781 133.78125 89.175781 C 134.511719 90.421875 135.628906 92.375 136.253906 93.464844 C 136.90625 94.585938 137.476562 95.546875 137.554688 95.625 C 137.710938 95.753906 138.46875 97.082031 139.144531 98.355469 C 139.351562 98.796875 140.417969 100.4375 141.488281 101.996094 C 143.359375 104.78125 144.660156 106.78125 145.675781 108.578125 C 145.964844 109.046875 146.40625 109.75 146.667969 110.136719 C 146.925781 110.527344 147.707031 111.75 148.410156 112.871094 C 150.285156 115.835938 152.289062 118.878906 153.929688 121.246094 C 154.707031 122.363281 155.566406 123.691406 155.828125 124.15625 C 156.453125 125.277344 156.476562 126.550781 155.878906 126.734375 C 155.621094 126.8125 155.203125 126.992188 154.96875 127.125 C 154.707031 127.253906 154.265625 127.355469 154.003906 127.355469 C 153.71875 127.355469 153.40625 127.460938 153.328125 127.617188 C 153.25 127.746094 152.808594 127.878906 152.367188 127.878906 C 151.117188 127.878906 148.566406 129.125 148.460938 129.800781 C 148.410156 130.21875 148.070312 130.425781 146.953125 130.710938 C 146.171875 130.921875 145.390625 131.257812 145.234375 131.492188 C 145.078125 131.699219 144.714844 131.804688 144.429688 131.726562 C 144.089844 131.621094 143.648438 131.804688 143.28125 132.144531 C 142.945312 132.429688 142.527344 132.6875 142.371094 132.6875 C 141.773438 132.6875 140.105469 134.300781 139.640625 135.34375 C 139.351562 135.941406 138.910156 136.566406 138.625 136.722656 C 138.335938 136.878906 138.101562 137.136719 138.101562 137.292969 C 138.101562 137.449219 137.921875 137.710938 137.660156 137.890625 C 137.425781 138.074219 137.21875 138.4375 137.191406 138.699219 C 137.140625 139.191406 136.800781 140.023438 135.605469 142.574219 C 135.265625 143.300781 134.980469 144.132812 134.980469 144.445312 C 134.980469 144.757812 134.851562 145.097656 134.71875 145.175781 C 134.5625 145.277344 134.511719 145.460938 134.617188 145.589844 C 134.695312 145.71875 134.511719 146.527344 134.226562 147.386719 C 133.914062 148.242188 133.679688 149.179688 133.679688 149.441406 C 133.679688 149.726562 133.546875 150.039062 133.390625 150.140625 C 133.183594 150.246094 133.132812 150.820312 133.234375 151.78125 C 133.390625 153.316406 133.289062 153.707031 132.613281 153.941406 C 132.324219 154.042969 132.144531 154.5625 132.039062 155.5 C 131.777344 157.761719 131.441406 159.296875 131.128906 159.6875 C 130.710938 160.183594 130.398438 164.839844 130.476562 169.105469 C 130.503906 169.675781 130.503906 170.871094 130.476562 171.78125 C 130.476562 172.953125 130.582031 173.5 130.839844 173.683594 C 131.128906 173.863281 131.128906 173.914062 130.761719 173.914062 C 130.191406 173.914062 130.164062 174.253906 130.710938 174.722656 C 130.972656 174.929688 131.050781 175.269531 130.945312 175.660156 C 130.867188 175.996094 130.996094 176.671875 131.230469 177.167969 C 131.570312 177.894531 131.597656 178.15625 131.335938 178.46875 C 130.917969 178.960938 131.179688 179.636719 131.804688 179.636719 C 132.273438 179.636719 132.898438 180.105469 132.898438 180.46875 C 132.898438 180.574219 132.636719 180.886719 132.324219 181.199219 L 131.753906 181.71875 L 132.324219 181.71875 C 132.769531 181.71875 132.898438 181.875 132.898438 182.394531 C 132.898438 182.992188 133.289062 185.4375 133.914062 188.742188 C 134.042969 189.390625 134.539062 191.03125 135.058594 192.382812 C 135.550781 193.734375 136.253906 195.632812 136.621094 196.597656 C 136.957031 197.535156 137.503906 198.679688 137.789062 199.09375 C 138.101562 199.511719 138.46875 200.394531 138.625 201.042969 C 138.9375 202.449219 141.902344 208.300781 143.257812 210.199219 C 143.777344 210.902344 145.050781 212.542969 146.121094 213.816406 C 148.019531 216.105469 148.046875 216.15625 147.835938 217.195312 C 147.734375 217.796875 147.628906 219.460938 147.601562 220.917969 C 147.578125 222.375 147.5 223.671875 147.394531 223.75 C 147.289062 223.855469 147.210938 224.558594 147.210938 225.3125 L 147.210938 226.664062 L 143.804688 230.019531 C 141.929688 231.839844 139.71875 234.15625 138.9375 235.171875 C 138.128906 236.160156 137.21875 237.25 136.90625 237.5625 C 136.59375 237.875 135.707031 239.046875 134.953125 240.164062 C 134.199219 241.28125 133.367188 242.425781 133.132812 242.714844 C 132.898438 243 132.066406 244.402344 131.335938 245.835938 C 129.4375 249.476562 128.109375 251.816406 126.910156 253.636719 C 126.339844 254.496094 125.792969 255.378906 125.6875 255.589844 C 124.984375 257.148438 121.132812 261.390625 119.285156 262.609375 C 118.765625 262.976562 118.269531 263.445312 118.191406 263.703125 C 118.113281 263.9375 117.671875 264.40625 117.203125 264.769531 C 116.734375 265.132812 116.109375 265.65625 115.796875 265.914062 C 114.9375 266.667969 111.269531 271.636719 110.148438 273.5625 C 109.601562 274.472656 109.058594 275.410156 108.925781 275.617188 C 108.796875 275.824219 108.433594 276.527344 108.121094 277.175781 C 107.441406 278.609375 103.824219 283.496094 101.71875 285.8125 C 100.859375 286.773438 98.828125 288.75 97.242188 290.234375 C 95.625 291.71875 91.957031 295.253906 89.066406 298.117188 C 86.203125 300.976562 82.691406 304.304688 81.285156 305.527344 C 79.878906 306.75 77.980469 308.390625 77.09375 309.167969 C 75.117188 310.886719 70.355469 314.710938 67.621094 316.789062 C 66.503906 317.625 65.410156 318.457031 65.175781 318.664062 C 64.941406 318.847656 64.421875 319.234375 64.003906 319.496094 C 63.613281 319.757812 62.625 320.433594 61.84375 321.03125 C 60.464844 322.046875 59.109375 322.851562 55.597656 324.699219 C 54.660156 325.191406 52.96875 326.285156 51.824219 327.117188 C 50.679688 327.976562 49.664062 328.679688 49.558594 328.679688 C 49.195312 328.679688 43.46875 332.578125 42.453125 333.488281 C 41.90625 334.011719 40.371094 335.257812 39.042969 336.246094 C 37.742188 337.210938 35.453125 339.316406 33.96875 340.851562 C 32.433594 342.464844 30.792969 343.945312 30.140625 344.257812 C 28.996094 344.855469 26.054688 346.652344 24.105469 348.003906 C 22.542969 349.097656 21.136719 350.394531 20.71875 351.152344 C 20.539062 351.515625 20.121094 351.851562 19.785156 351.929688 C 19.472656 352.007812 18.847656 352.398438 18.402344 352.761719 C 16.765625 354.140625 17.726562 356.300781 20.121094 356.664062 C 21.734375 356.898438 26.601562 356.664062 27.019531 356.328125 C 27.203125 356.171875 28.058594 355.832031 28.917969 355.597656 C 31.15625 354.972656 31.992188 354.636719 32.433594 354.167969 C 32.640625 353.933594 33.214844 353.59375 33.683594 353.441406 C 34.152344 353.285156 34.878906 352.917969 35.269531 352.605469 C 35.6875 352.320312 36.101562 352.085938 36.234375 352.085938 C 36.335938 352.085938 37.300781 351.566406 38.394531 350.941406 C 40.292969 349.824219 42.921875 348.808594 45.941406 348.03125 C 47.007812 347.742188 47.554688 347.71875 48.023438 347.925781 C 48.414062 348.082031 50.523438 348.367188 52.734375 348.574219 C 57.496094 349.019531 58.667969 349.199219 58.875 349.511719 C 58.953125 349.640625 59.605469 349.746094 60.308594 349.746094 C 61.402344 349.746094 61.871094 349.5625 63.09375 348.730469 C 64.964844 347.457031 65.304688 347.066406 66.136719 345.246094 C 66.761719 343.894531 67.28125 340.824219 67.308594 338.277344 C 67.308594 337.441406 68.402344 335.988281 70.640625 333.699219 C 72.304688 332.03125 74.078125 330.734375 77.199219 328.832031 C 78.683594 327.949219 80.503906 326.648438 82.953125 324.777344 C 83.34375 324.488281 84.617188 323.789062 85.816406 323.191406 C 87.011719 322.589844 89.121094 321.421875 90.523438 320.5625 C 91.90625 319.730469 93.101562 319.054688 93.207031 319.054688 C 93.285156 319.054688 94.613281 318.351562 96.148438 317.519531 C 97.683594 316.6875 99.453125 315.699219 100.101562 315.359375 C 101.925781 314.398438 103.851562 312.890625 107.390625 309.664062 C 111.476562 305.917969 112.542969 304.851562 116.292969 300.691406 C 117.957031 298.84375 120.429688 296.269531 121.757812 294.96875 C 123.085938 293.667969 124.75 291.976562 125.429688 291.195312 C 127.015625 289.429688 131.179688 283.964844 131.675781 282.976562 C 131.910156 282.585938 132.921875 281.496094 133.964844 280.558594 C 135.007812 279.621094 136.097656 278.632812 136.386719 278.347656 C 138.050781 276.761719 139.847656 275.617188 143.726562 273.640625 C 148.695312 271.117188 154.082031 267.578125 157.46875 264.613281 C 158.769531 263.46875 160.304688 262.246094 160.878906 261.882812 C 162.308594 261 165.066406 258.527344 170.011719 253.769531 C 172.304688 251.558594 175.789062 248.28125 177.792969 246.484375 C 188.441406 236.859375 189.351562 236.003906 192.109375 232.777344 C 194.007812 230.566406 196.613281 226.484375 197.160156 224.871094 C 197.316406 224.351562 197.679688 223.699219 197.941406 223.414062 C 198.226562 223.128906 198.488281 222.683594 198.539062 222.398438 C 198.617188 221.878906 199.007812 221.644531 201.738281 220.449219 C 202.753906 220.03125 204.210938 219.328125 204.992188 218.914062 C 205.773438 218.523438 207.179688 217.925781 208.089844 217.613281 C 209.964844 216.988281 210.613281 216.652344 214.703125 214.128906 C 217.929688 212.152344 223.003906 208.277344 224.902344 206.324219 C 227.246094 203.957031 227.453125 203.800781 237.058594 197.507812 C 241.222656 194.800781 243.746094 192.980469 245.59375 191.394531 C 246.53125 190.613281 248.980469 188.847656 251.0625 187.492188 C 253.144531 186.140625 255.667969 184.476562 256.683594 183.773438 C 257.699219 183.097656 259.207031 182.214844 260.066406 181.847656 C 261.265625 181.328125 263.789062 179.480469 264.855469 178.335938 C 264.933594 178.257812 265.558594 177.738281 266.289062 177.167969 C 268.292969 175.582031 271.230469 172.5625 274.277344 168.972656 C 275.8125 167.179688 277.402344 165.359375 277.792969 164.917969 C 278.726562 163.902344 283.648438 160 284.6875 159.453125 C 285.625 158.960938 293.09375 153.863281 295.699219 151.9375 C 296.714844 151.183594 298.976562 149.621094 300.773438 148.453125 C 302.570312 147.308594 304.910156 145.71875 305.980469 144.941406 C 307.046875 144.160156 308.242188 143.378906 308.660156 143.199219 C 309.050781 143.015625 309.363281 142.78125 309.363281 142.652344 C 309.363281 142.546875 309.492188 142.441406 309.648438 142.441406 C 309.804688 142.441406 310.691406 141.898438 311.625 141.246094 C 315.402344 138.542969 321.335938 135.863281 327.398438 134.09375 C 329.847656 133.367188 332.605469 132.429688 333.488281 132.011719 C 334.375 131.597656 335.15625 131.257812 335.234375 131.257812 C 335.441406 131.257812 338.773438 129.152344 340.59375 127.878906 C 341.53125 127.203125 343.824219 125.847656 345.671875 124.835938 C 352.464844 121.140625 352.515625 121.113281 355.820312 118.667969 C 359.621094 115.859375 361.390625 113.9375 362.511719 111.414062 C 362.691406 111.023438 362.925781 110.710938 363.03125 110.710938 C 363.132812 110.710938 363.238281 110.554688 363.238281 110.371094 C 363.238281 110.214844 363.785156 109.460938 364.4375 108.761719 C 366.832031 106.105469 367.144531 105.507812 367.144531 103.375 C 367.144531 101.554688 367.089844 101.398438 366.335938 100.671875 C 365.554688 99.941406 365.503906 99.917969 363.054688 99.96875 C 360.714844 100.019531 357.304688 100.773438 356.628906 101.398438 C 356.472656 101.503906 356.105469 101.605469 355.769531 101.605469 C 355.457031 101.605469 353.738281 102.359375 351.996094 103.273438 C 350.226562 104.15625 348.089844 105.195312 347.230469 105.535156 C 346.371094 105.847656 345.488281 106.261719 345.28125 106.417969 C 345.070312 106.601562 343.769531 107.070312 342.417969 107.484375 C 339.8125 108.265625 339.527344 108.292969 330.914062 108.058594 C 327.320312 107.980469 325.835938 108.527344 324.199219 110.554688 C 323.390625 111.59375 323.027344 112.582031 322.636719 114.742188 C 321.984375 118.460938 321.125 120.4375 319.957031 121.089844 C 319.539062 121.324219 318.707031 121.816406 318.132812 122.179688 C 314.777344 124.234375 313.550781 124.859375 310.507812 126.082031 C 308.660156 126.835938 306.445312 127.695312 305.589844 128.007812 C 304.730469 128.320312 303.453125 128.867188 302.726562 129.179688 C 302.023438 129.515625 301.085938 129.878906 300.644531 129.984375 C 300.226562 130.113281 299.34375 130.324219 298.691406 130.503906 C 297.363281 130.84375 294.578125 131.960938 290.753906 133.652344 C 289.320312 134.300781 287.527344 135.03125 286.796875 135.265625 C 282.582031 136.667969 280.601562 137.710938 275.683594 141.117188 C 273.964844 142.339844 271.492188 144.03125 270.191406 144.886719 C 268.914062 145.746094 267.378906 146.8125 266.808594 147.28125 C 266.234375 147.75 264.804688 148.789062 263.632812 149.648438 C 260.613281 151.808594 255.695312 156.332031 251.84375 160.519531 C 249.996094 162.523438 248.042969 164.214844 246.636719 165.019531 C 242.210938 167.542969 241.796875 167.75 239.949219 168.324219 C 239.191406 168.558594 238.515625 168.871094 238.4375 168.972656 C 238.359375 169.105469 237.5 169.46875 236.5625 169.753906 C 235.628906 170.039062 234.480469 170.507812 234.039062 170.769531 C 233.597656 171.027344 231.957031 171.757812 230.371094 172.355469 C 224.355469 174.644531 220.921875 176.023438 218.527344 177.035156 C 217.175781 177.636719 215.402344 178.363281 214.625 178.648438 C 213.84375 178.9375 213.085938 179.273438 212.929688 179.378906 C 212.800781 179.457031 212.152344 179.691406 211.5 179.871094 C 210.847656 180.054688 209.757812 180.445312 209.027344 180.730469 C 207.675781 181.304688 204.523438 182.34375 202.910156 182.785156 C 202.417969 182.914062 201.0625 183.070312 199.917969 183.125 C 198.773438 183.203125 197.496094 183.332031 197.105469 183.410156 C 196.558594 183.566406 196.222656 183.460938 195.804688 183.070312 C 195.414062 182.707031 194.53125 182.445312 192.941406 182.214844 C 190.964844 181.902344 190.652344 181.796875 190.757812 181.40625 C 190.992188 180.574219 190.390625 180.601562 189.636719 181.433594 C 189.117188 182.003906 188.621094 182.238281 188.023438 182.292969 C 186.773438 182.34375 186.722656 182.34375 185.785156 182.734375 C 185.132812 182.992188 184.847656 183.019531 184.613281 182.785156 C 184.457031 182.628906 183.675781 182.5 182.871094 182.5 C 180.996094 182.5 178.730469 181.902344 176.910156 180.9375 C 175.375 180.132812 172.824219 179.246094 172.277344 179.351562 C 172.09375 179.378906 171.9375 179.246094 171.9375 179.066406 C 171.9375 178.910156 171.625 178.3125 171.261719 177.792969 C 170.898438 177.246094 170.53125 176.359375 170.453125 175.789062 C 170.324219 174.902344 170.402344 174.722656 170.871094 174.566406 C 171.183594 174.488281 171.46875 174.097656 171.574219 173.707031 C 171.78125 172.71875 172.433594 170.507812 172.695312 169.882812 C 172.824219 169.597656 173.1875 168.480469 173.527344 167.414062 C 173.839844 166.347656 174.253906 165.226562 174.4375 164.941406 C 174.621094 164.65625 174.957031 163.929688 175.164062 163.304688 C 175.710938 161.792969 176.363281 160.390625 176.9375 159.558594 C 177.195312 159.195312 177.402344 158.621094 177.402344 158.335938 C 177.402344 158.023438 177.507812 157.582031 177.636719 157.320312 C 177.769531 157.085938 178.183594 155.863281 178.574219 154.589844 C 179.332031 152.117188 179.253906 152.117188 180.632812 154.019531 C 181.648438 155.394531 184.484375 158.074219 186.125 159.21875 C 186.851562 159.714844 187.710938 160.339844 188.074219 160.625 C 188.441406 160.9375 188.855469 161.171875 189.039062 161.171875 C 189.195312 161.171875 189.84375 161.5625 190.496094 162.054688 C 192.03125 163.226562 192.578125 163.511719 194.582031 164.160156 L 196.273438 164.734375 L 196.429688 166.527344 C 196.558594 168.324219 197.238281 170.066406 198.175781 171.132812 C 199.5 172.617188 204.914062 173.8125 207.597656 173.1875 C 211.058594 172.382812 213.476562 169 213.738281 164.578125 C 213.789062 163.511719 213.867188 162.628906 213.894531 162.601562 C 213.945312 162.550781 214.753906 162.160156 215.742188 161.71875 C 216.964844 161.144531 217.929688 160.417969 218.96875 159.351562 C 222.847656 155.242188 224.304688 151.546875 225.398438 143.066406 C 225.632812 141.375 225.945312 139.554688 226.074219 139.0625 C 226.230469 138.566406 226.335938 137.734375 226.335938 137.214844 C 226.335938 135.886719 225.191406 132.714844 224.253906 131.441406 C 223.5 130.425781 223.472656 130.269531 223.472656 127.746094 C 223.472656 124.652344 223.265625 123.792969 222.171875 122.414062 C 221.519531 121.609375 221.15625 121.375 220.558594 121.375 C 219.800781 121.375 217.875 120.152344 216.628906 118.902344 C 215.976562 118.28125 213.375 116.25 211.890625 115.289062 C 211.1875 114.792969 209.703125 113.703125 208.636719 112.816406 L 206.710938 111.230469 L 204.890625 111.230469 C 203.171875 111.230469 203.015625 111.28125 201.871094 112.246094 C 201.21875 112.792969 200.257812 113.492188 199.761719 113.804688 C 197.652344 115.105469 198.226562 114.144531 201.660156 110.660156 C 203.664062 108.628906 205.722656 106.316406 206.214844 105.507812 C 208.195312 102.464844 210.277344 100.074219 212.359375 98.460938 C 213.53125 97.574219 215.089844 96.300781 215.792969 95.652344 C 220.765625 91.152344 223.289062 88.964844 224.382812 88.289062 C 224.957031 87.925781 225.582031 87.429688 225.789062 87.195312 C 225.972656 86.964844 226.414062 86.78125 226.726562 86.78125 C 227.0625 86.78125 227.375 86.625 227.453125 86.441406 C 227.53125 86.234375 228.679688 85.246094 230.03125 84.230469 C 232.191406 82.566406 235.394531 79.421875 237.398438 76.898438 C 239.246094 74.582031 243.070312 70.992188 245.074219 69.640625 C 247.9375 67.742188 251.242188 65.191406 252.207031 64.179688 C 252.648438 63.734375 253.246094 63.371094 253.558594 63.371094 C 253.898438 63.371094 254.238281 63.242188 254.316406 63.113281 C 254.394531 62.957031 254.757812 62.929688 255.09375 63.007812 C 255.433594 63.085938 256.554688 62.878906 257.699219 62.488281 C 258.816406 62.125 259.910156 61.8125 260.144531 61.8125 C 260.378906 61.8125 261.003906 61.578125 261.550781 61.289062 C 262.539062 60.769531 265.011719 59.78125 266.675781 59.261719 C 268.394531 58.742188 272.273438 58.167969 274.277344 58.167969 C 276.074219 58.167969 276.28125 58.117188 276.4375 57.625 C 276.542969 57.285156 276.4375 56.921875 276.152344 56.582031 C 275.734375 56.140625 275.320312 56.089844 271.128906 56.089844 C 265.792969 56.089844 265.324219 55.671875 270.453125 55.492188 C 275.398438 55.308594 280.886719 54.890625 281.226562 54.683594 C 281.382812 54.582031 281.511719 54.214844 281.511719 53.878906 C 281.511719 52.601562 280.289062 52.472656 275.527344 53.226562 C 273.160156 53.617188 268.96875 53.410156 268.1875 52.863281 C 267.667969 52.5 267.667969 52.472656 268.5 52.058594 C 269.175781 51.71875 270.476562 51.613281 275.476562 51.484375 C 278.859375 51.40625 281.902344 51.226562 282.242188 51.121094 C 282.972656 50.835938 283.023438 49.792969 282.292969 49.066406 C 281.800781 48.570312 281.539062 48.546875 274.640625 48.726562 C 267.277344 48.882812 266.675781 48.832031 266.675781 47.871094 C 266.675781 47.402344 267.847656 46.828125 269.28125 46.621094 C 271.335938 46.359375 276.125 45.738281 277.660156 45.554688 C 278.46875 45.476562 279.273438 45.214844 279.429688 45.035156 C 279.898438 44.460938 279.640625 43.785156 278.78125 43.371094 C 278.128906 43.058594 277.714844 43.058594 276.175781 43.316406 C 273.472656 43.8125 271.257812 44.125 268.394531 44.382812 C 266.988281 44.515625 265.765625 44.695312 265.714844 44.75 C 265.636719 44.828125 265.324219 44.773438 264.984375 44.644531 C 264.542969 44.488281 264.023438 44.644531 262.746094 45.347656 C 261.054688 46.28125 258.0625 47.246094 256.683594 47.246094 C 256.007812 47.246094 255.953125 47.191406 256.085938 46.386719 C 256.164062 45.945312 256.34375 45.085938 256.527344 44.515625 C 257.230469 42.09375 257.046875 39.988281 256.007812 39.050781 C 255.5625 38.636719 255.511719 38.660156 255.148438 39.234375 C 254.9375 39.546875 254.496094 40.585938 254.183594 41.523438 C 253.847656 42.433594 253.300781 43.707031 252.960938 44.332031 C 252.621094 44.929688 251.945312 46.515625 251.476562 47.84375 C 250.515625 50.523438 249.890625 51.824219 248.589844 53.878906 C 248.066406 54.683594 247.753906 55.4375 247.832031 55.671875 C 247.910156 55.90625 247.859375 56.089844 247.703125 56.089844 C 247.546875 56.089844 246.84375 56.53125 246.140625 57.050781 C 245.414062 57.597656 244.164062 58.378906 243.332031 58.820312 C 242.082031 59.445312 238.152344 61.785156 236.484375 62.878906 C 236.277344 63.007812 235.757812 63.320312 235.339844 63.578125 C 234.949219 63.8125 233.855469 64.515625 232.945312 65.113281 C 232.007812 65.710938 230.839844 66.414062 230.292969 66.648438 C 229.769531 66.910156 228.523438 67.765625 227.558594 68.546875 C 224.511719 71.019531 221.128906 73.28125 218.398438 74.632812 C 215.402344 76.144531 212.125 78.433594 210.171875 80.355469 C 208.167969 82.359375 205.253906 85.792969 203.820312 87.847656 C 202.832031 89.226562 201.714844 90.628906 199.917969 92.738281 C 199.476562 93.257812 198.695312 94.195312 198.226562 94.84375 C 197.730469 95.496094 196.613281 96.742188 195.78125 97.652344 C 194.921875 98.539062 193.773438 99.890625 193.230469 100.644531 C 191.71875 102.648438 191.535156 102.882812 189.664062 104.859375 C 188.726562 105.871094 186.957031 107.847656 185.734375 109.253906 C 184.507812 110.660156 182.949219 112.347656 182.246094 113.027344 C 181.570312 113.675781 179.929688 115.238281 178.652344 116.484375 C 177.378906 117.757812 176.257812 118.773438 176.15625 118.773438 C 175.554688 118.746094 173.863281 117.472656 173.449219 116.746094 C 173.1875 116.277344 172.667969 115.574219 172.304688 115.183594 C 171.9375 114.792969 171 113.648438 170.246094 112.660156 C 169.101562 111.101562 168.527344 110.632812 166.65625 109.566406 C 165.40625 108.890625 164.128906 108.058594 163.816406 107.746094 C 162.75 106.730469 161.476562 105.144531 161.058594 104.261719 C 160.824219 103.816406 160.566406 103.425781 160.433594 103.425781 C 160.332031 103.425781 160.226562 103.296875 160.226562 103.140625 C 160.226562 102.984375 159.707031 102.050781 159.054688 101.0625 C 158.40625 100.074219 157.882812 99.1875 157.882812 99.109375 C 157.882812 99.03125 157.648438 98.617188 157.363281 98.226562 C 155.984375 96.273438 154.394531 92.660156 152.679688 87.5625 C 151.664062 84.492188 150.414062 81.292969 149.917969 80.460938 C 149.425781 79.628906 149.035156 78.820312 149.035156 78.691406 C 149.035156 78.5625 147.8125 77.261719 146.328125 75.777344 C 144.84375 74.320312 142.605469 71.902344 141.355469 70.394531 C 140.132812 68.886719 138.648438 67.144531 138.078125 66.492188 C 136.621094 64.800781 133.9375 60.796875 133.9375 60.277344 C 133.9375 60.042969 133.523438 59.210938 133 58.429688 C 132.480469 57.648438 131.832031 56.558594 131.570312 56.035156 C 131.308594 55.515625 130.503906 54.476562 129.800781 53.722656 C 129.019531 52.890625 128.394531 51.953125 128.210938 51.304688 C 127.824219 49.898438 128.238281 39.859375 128.734375 38.949219 C 128.941406 38.53125 128.992188 37.804688 128.890625 36.789062 C 128.757812 35.382812 128.8125 35.097656 129.644531 33.460938 C 131.074219 30.597656 130.839844 29.558594 128.757812 29.558594 C 127.847656 29.558594 127.328125 29.742188 126.652344 30.285156 Z M 141.226562 193.164062 C 141.226562 193.292969 141.175781 193.421875 141.121094 193.421875 C 141.042969 193.421875 140.914062 193.292969 140.835938 193.164062 C 140.757812 193.007812 140.808594 192.902344 140.941406 192.902344 C 141.097656 192.902344 141.226562 193.007812 141.226562 193.164062 Z M 141.226562 193.164062 " fill-opacity="1" fill-rule="nonzero"/></g><path fill="rgb(100%, 34.118652%, 34.118652%)" d="M 152.78125 216.921875 L 138.953125 203.847656 C 135.992188 200.109375 133.878906 196.6875 132.605469 193.582031 C 132.085938 192.367188 131.613281 191.027344 131.179688 189.570312 L 130.574219 187.273438 C 130.195312 185.675781 129.875 183.910156 129.613281 181.980469 C 129.351562 180.039062 129.160156 177.945312 129.042969 175.703125 L 128.929688 172.273438 C 128.894531 169.925781 128.949219 167.523438 129.097656 165.058594 C 129.242188 162.597656 129.496094 160.140625 129.855469 157.683594 L 130.484375 154.046875 L 131.292969 150.511719 L 132.292969 147.113281 L 133.488281 143.90625 L 134.894531 140.929688 L 136.515625 138.222656 L 138.339844 135.769531 C 139.625 134.21875 141.015625 132.8125 142.519531 131.539062 C 143.171875 130.777344 145.613281 129.109375 149.84375 126.535156 C 152.40625 125.023438 157.007812 122.914062 163.640625 120.210938 L 162.164062 136.703125 L 152.78125 216.921875 " fill-opacity="1" fill-rule="nonzero"/><path fill="rgb(100%, 34.118652%, 34.118652%)" d="M 215.929688 184.289062 L 207.761719 186.207031 C 204.40625 184.386719 201.15625 182.789062 198.015625 181.414062 C 195.933594 180.523438 193.980469 179.898438 192.15625 179.535156 C 191.246094 179.363281 190.382812 179.28125 189.5625 179.292969 L 188.367188 179.378906 C 187.59375 179.488281 186.859375 179.65625 186.164062 179.882812 C 186.085938 179.863281 184.804688 180.355469 182.3125 181.363281 C 181.71875 181.589844 181.128906 181.757812 180.554688 181.863281 C 179.976562 181.972656 179.402344 181.980469 178.828125 181.890625 L 177.960938 181.652344 C 177.378906 181.425781 176.792969 181.066406 176.195312 180.585938 L 175.296875 179.78125 C 174.691406 179.191406 174.085938 178.503906 173.472656 177.726562 C 171.9375 175.828125 169.753906 172.460938 166.914062 167.621094 C 166.980469 172.269531 167.394531 175.695312 168.152344 177.898438 C 168.441406 178.789062 168.8125 179.636719 169.265625 180.441406 L 170.027344 181.601562 C 170.582031 182.351562 171.253906 183.042969 172.042969 183.671875 C 173.667969 184.902344 175.667969 185.933594 178.046875 186.765625 C 179.21875 187.191406 180.4375 187.589844 181.703125 187.960938 L 189.359375 190.121094 L 191.207031 190.683594 L 192.976562 191.28125 C 194.121094 191.695312 195.207031 192.136719 196.230469 192.605469 C 199.464844 193.933594 203.667969 196.695312 208.839844 200.878906 L 215.929688 184.289062 " fill-opacity="1" fill-rule="nonzero"/></svg>