<?xml version="1.0" encoding="UTF-8"?><svg xmlns="http://www.w3.org/2000/svg" xmlns:xlink="http://www.w3.org/1999/xlink" contentScriptType="text/ecmascript" width="375" zoomAndPan="magnify" contentStyleType="text/css" viewBox="0 0 375 374.999991" height="374.999991" preserveAspectRatio="xMidYMid meet" version="1.0"><path fill="rgb(94.898987%, 94.898987%, 94.898987%)" d="M 353.0625 327.589844 L 24.664062 327.589844 C 11.835938 327.589844 1.097656 317.421875 1.097656 304.292969 L 1.097656 76.765625 C 1.097656 75.992188 1.136719 75.222656 1.214844 74.453125 C 1.292969 73.6875 1.40625 72.921875 1.558594 72.164062 C 1.707031 71.410156 1.898438 70.660156 2.121094 69.921875 C 2.347656 69.183594 2.605469 68.457031 2.902344 67.742188 C 3.199219 67.03125 3.53125 66.332031 3.894531 65.652344 C 4.257812 64.972656 4.65625 64.3125 5.082031 63.667969 C 5.511719 63.027344 5.972656 62.410156 6.460938 61.8125 C 6.953125 61.214844 7.46875 60.644531 8.015625 60.097656 C 8.558594 59.550781 9.132812 59.035156 9.726562 58.542969 C 10.324219 58.054688 10.941406 57.59375 11.582031 57.167969 C 12.226562 56.738281 12.886719 56.339844 13.566406 55.976562 C 14.246094 55.613281 14.941406 55.28125 15.65625 54.988281 C 16.367188 54.691406 17.09375 54.429688 17.832031 54.207031 C 18.570312 53.980469 19.316406 53.792969 20.070312 53.644531 C 20.828125 53.492188 21.589844 53.378906 22.359375 53.300781 C 23.125 53.226562 23.894531 53.1875 24.664062 53.1875 L 353.0625 53.1875 C 365.890625 53.1875 376.628906 63.765625 376.628906 76.789062 L 376.628906 303.996094 C 376.335938 317.445312 365.890625 327.601562 353.0625 327.601562 Z M 353.0625 327.589844 " fill-opacity="1" fill-rule="nonzero"/><path fill="rgb(13.328552%, 12.159729%, 12.159729%)" d="M 48.046875 327.589844 L 188.546875 224.621094 L 189.4375 218.648438 L 44.527344 114.402344 L 44.230469 322.511719 Z M 48.046875 327.589844 " fill-opacity="0.098" fill-rule="nonzero"/><path fill="rgb(83.139038%, 29.798889%, 23.919678%)" d="M 24.664062 327.589844 C 11.660156 327.589844 1.097656 317.421875 1.097656 304.292969 L 1.097656 76.460938 C 1.097656 63.320312 11.660156 60.945312 24.664062 60.945312 C 37.671875 60.945312 48.234375 63.648438 48.234375 76.460938 L 48.234375 327.578125 Z M 24.664062 327.589844 " fill-opacity="1" fill-rule="nonzero"/><path fill="rgb(83.139038%, 29.798889%, 23.919678%)" d="M 24.664062 64.515625 C 41.367188 64.515625 44.65625 69.59375 44.65625 76.460938 L 44.65625 324.285156 L 24.664062 324.285156 C 13.632812 324.285156 4.675781 315.328125 4.675781 304.269531 L 4.675781 76.460938 C 4.382812 69.40625 7.960938 64.515625 24.664062 64.515625 Z M 24.664062 61.226562 C 11.660156 61.238281 1.097656 63.917969 1.097656 76.460938 L 1.097656 303.972656 C 1.085938 304.75 1.113281 305.523438 1.179688 306.296875 C 1.246094 307.070312 1.351562 307.839844 1.492188 308.601562 C 1.636719 309.363281 1.816406 310.117188 2.035156 310.863281 C 2.253906 311.609375 2.507812 312.339844 2.800781 313.058594 C 3.089844 313.777344 3.417969 314.480469 3.78125 315.167969 C 4.140625 315.851562 4.535156 316.519531 4.964844 317.167969 C 5.394531 317.8125 5.851562 318.4375 6.34375 319.039062 C 6.832031 319.640625 7.351562 320.214844 7.902344 320.761719 C 8.449219 321.3125 9.023438 321.832031 9.621094 322.324219 C 10.222656 322.8125 10.84375 323.273438 11.492188 323.703125 C 12.136719 324.132812 12.804688 324.527344 13.488281 324.890625 C 14.175781 325.25 14.875 325.578125 15.59375 325.871094 C 16.3125 326.164062 17.042969 326.417969 17.785156 326.636719 C 18.53125 326.855469 19.28125 327.035156 20.042969 327.179688 C 20.804688 327.320312 21.574219 327.425781 22.34375 327.492188 C 23.117188 327.558594 23.890625 327.585938 24.664062 327.578125 L 48.234375 327.578125 L 48.234375 76.460938 C 48.046875 63.625 37.789062 61.238281 24.664062 61.238281 Z M 353.0625 64.515625 C 368.273438 64.515625 373.050781 67.503906 373.050781 75.871094 L 373.050781 304.585938 C 373.050781 315.632812 364.105469 324.601562 353.0625 324.601562 L 333.070312 324.601562 L 333.070312 75.871094 C 332.777344 67.210938 337.847656 64.515625 353.0625 64.515625 Z M 353.0625 61.226562 C 339.9375 61.226562 329.492188 63.011719 329.492188 75.859375 L 329.492188 327.871094 L 353.0625 327.871094 C 366.183594 327.871094 376.628906 317.292969 376.628906 304.269531 L 376.628906 75.566406 C 376.335938 62.71875 365.890625 61.226562 353.0625 61.226562 Z M 353.0625 61.226562 " fill-opacity="1" fill-rule="nonzero"/><path fill="rgb(83.139038%, 29.798889%, 23.919678%)" d="M 353.0625 327.589844 L 329.492188 327.589844 L 329.492188 75.871094 C 329.492188 62.730469 340.054688 61.238281 353.0625 61.238281 C 366.066406 61.238281 376.628906 63.023438 376.628906 75.871094 L 376.628906 304.585938 C 376.613281 305.347656 376.5625 306.105469 376.472656 306.863281 C 376.378906 307.617188 376.253906 308.367188 376.089844 309.109375 C 375.929688 309.855469 375.730469 310.589844 375.496094 311.3125 C 375.261719 312.039062 374.996094 312.75 374.691406 313.449219 C 374.386719 314.144531 374.050781 314.828125 373.683594 315.496094 C 373.3125 316.160156 372.914062 316.804688 372.480469 317.433594 C 372.050781 318.058594 371.589844 318.664062 371.097656 319.246094 C 370.605469 319.828125 370.089844 320.382812 369.546875 320.914062 C 369 321.445312 368.429688 321.949219 367.839844 322.425781 C 367.246094 322.902344 366.628906 323.347656 365.992188 323.765625 C 365.355469 324.179688 364.699219 324.566406 364.027344 324.917969 C 363.351562 325.269531 362.664062 325.589844 361.957031 325.875 C 361.253906 326.160156 360.535156 326.410156 359.808594 326.625 C 359.078125 326.84375 358.339844 327.023438 357.59375 327.164062 C 356.847656 327.308594 356.09375 327.417969 355.335938 327.488281 C 354.582031 327.558594 353.820312 327.589844 353.0625 327.589844 Z M 353.0625 327.589844 " fill-opacity="1" fill-rule="nonzero"/><path fill="rgb(13.328552%, 12.159729%, 12.159729%)" d="M 252.539062 327.589844 L 3.1875 86.449219 L 16.308594 91.824219 L 190.023438 216.96875 L 376.617188 79.75 L 376.617188 304.585938 C 376.617188 305.355469 376.574219 306.121094 376.496094 306.886719 C 376.417969 307.648438 376.300781 308.410156 376.148438 309.160156 C 375.996094 309.914062 375.804688 310.65625 375.578125 311.390625 C 375.351562 312.125 375.089844 312.847656 374.792969 313.558594 C 374.496094 314.265625 374.164062 314.957031 373.800781 315.632812 C 373.433594 316.308594 373.035156 316.964844 372.605469 317.601562 C 372.175781 318.238281 371.714844 318.851562 371.222656 319.441406 C 370.734375 320.035156 370.214844 320.597656 369.667969 321.140625 C 369.125 321.679688 368.550781 322.191406 367.957031 322.675781 C 367.359375 323.15625 366.738281 323.609375 366.097656 324.035156 C 365.457031 324.457031 364.796875 324.84375 364.117188 325.203125 C 363.4375 325.558594 362.742188 325.882812 362.03125 326.171875 C 361.320312 326.460938 360.597656 326.714844 359.859375 326.929688 C 359.125 327.148438 358.378906 327.328125 357.625 327.472656 C 356.871094 327.613281 356.113281 327.722656 355.347656 327.789062 C 354.582031 327.859375 353.816406 327.890625 353.050781 327.882812 Z M 252.539062 327.589844 " fill-opacity="0.0784" fill-rule="nonzero"/><path fill="rgb(83.139038%, 29.798889%, 23.919678%)" d="M 188.429688 224.914062 L 11.238281 96.183594 C 0.671875 88.425781 -2.191406 73.496094 5.566406 63.035156 C 13.328125 52.574219 28.222656 50.1875 38.972656 57.957031 L 188.710938 166.980469 L 339.339844 56.476562 C 349.902344 48.71875 364.398438 51.105469 372.144531 61.847656 C 379.894531 72.429688 377.511719 86.945312 366.78125 94.703125 Z M 188.429688 224.914062 " fill-opacity="1" fill-rule="nonzero"/><path fill="rgb(83.139038%, 29.798889%, 23.919678%)" d="M 353.0625 55.5625 C 359.328125 55.5625 365.585938 58.546875 369.46875 63.929688 C 375.738281 72.886719 373.929688 85.441406 365.011719 92.140625 L 188.429688 220.742188 L 13.328125 93.503906 C 4.382812 86.921875 1.988281 74.074219 8.140625 65.292969 C 11.71875 59.921875 18 56.628906 24.839844 56.628906 C 29.300781 56.628906 33.492188 57.828125 36.765625 60.507812 L 186.1875 169.234375 L 188.277344 170.433594 L 190.367188 169.234375 L 340.84375 58.828125 C 344.714844 56.734375 348.589844 55.539062 353.074219 55.539062 Z M 353.0625 51.976562 C 348.285156 51.976562 343.203125 53.175781 339.328125 56.441406 L 188.710938 166.96875 L 38.679688 57.652344 C 34.808594 54.667969 29.734375 53.1875 24.664062 53.1875 C 17.210938 53.480469 9.757812 56.769531 5.273438 63.058594 C -2.179688 73.640625 0.816406 88.15625 11.238281 95.914062 L 188.429688 224.914062 L 366.78125 94.679688 C 367.402344 94.222656 368 93.742188 368.570312 93.230469 C 369.144531 92.714844 369.691406 92.175781 370.210938 91.613281 C 370.730469 91.046875 371.222656 90.457031 371.6875 89.84375 C 372.152344 89.230469 372.582031 88.597656 372.984375 87.941406 C 373.386719 87.285156 373.753906 86.609375 374.09375 85.917969 C 374.429688 85.226562 374.730469 84.523438 375 83.800781 C 375.265625 83.082031 375.5 82.347656 375.695312 81.605469 C 375.890625 80.863281 376.054688 80.109375 376.175781 79.351562 C 376.300781 78.59375 376.386719 77.828125 376.4375 77.0625 C 376.488281 76.292969 376.5 75.527344 376.476562 74.757812 C 376.449219 73.988281 376.386719 73.222656 376.289062 72.460938 C 376.191406 71.699219 376.054688 70.941406 375.882812 70.191406 C 375.710938 69.441406 375.503906 68.703125 375.257812 67.972656 C 375.015625 67.246094 374.734375 66.527344 374.421875 65.828125 C 374.109375 65.125 373.761719 64.4375 373.382812 63.769531 C 373 63.101562 372.589844 62.453125 372.148438 61.824219 C 367.371094 55.550781 360.222656 51.953125 353.0625 51.953125 Z M 353.0625 51.976562 " fill-opacity="1" fill-rule="nonzero"/></svg>